<?xml version="1.0" standalone="no"?>
<!DOCTYPE svg PUBLIC "-//W3C//DTD SVG 20010904//EN"
 "http://www.w3.org/TR/2001/REC-SVG-20010904/DTD/svg10.dtd">
<svg version="1.0" xmlns="http://www.w3.org/2000/svg"
 width="2250.000000pt" height="2250.000000pt" viewBox="0 0 2250.000000 2250.000000"
 preserveAspectRatio="xMidYMid meet">
<metadata>
Created by potrace 1.14, written by Peter Selinger 2001-2017
</metadata>
<g transform="translate(0.000000,2250.000000) scale(0.100000,-0.100000)"
fill="#000000" stroke="none">
<path d="M0 11250 l0 -11250 11250 0 11250 0 0 11250 0 11250 -11250 0 -11250
0 0 -11250z m8985 5840 c204 -23 370 -93 476 -199 118 -117 163 -241 162 -446
0 -112 -4 -137 -61 -375 -105 -442 -268 -1224 -472 -2265 -217 -1107 -299
-1702 -370 -2675 -34 -474 -42 -700 -41 -1215 0 -500 8 -706 37 -905 33 -229
119 -595 149 -637 13 -17 15 -16 45 12 120 113 301 379 530 775 283 489 341
593 558 990 234 430 450 810 563 997 164 267 364 550 431 607 83 71 204 87
299 39 45 -24 58 -37 81 -83 16 -32 32 -87 38 -130 7 -47 11 -336 10 -765 0
-1091 16 -1349 121 -1925 131 -712 400 -1302 743 -1628 273 -259 531 -287 783
-86 191 153 379 376 560 665 414 663 738 1453 972 2371 75 294 115 494 166
823 25 165 57 365 70 445 45 270 89 731 106 1105 13 304 22 334 114 376 109
50 207 -12 236 -149 13 -63 7 -523 -11 -822 -20 -319 -35 -446 -129 -1085 -45
-301 -117 -870 -155 -1220 -156 -1418 -188 -2703 -85 -3385 52 -338 138 -559
241 -615 33 -17 42 -18 85 -7 120 31 321 153 623 376 257 190 620 424 865 558
356 195 912 414 1287 508 293 73 374 84 633 84 209 1 238 -1 315 -22 179 -49
290 -124 290 -197 0 -113 -117 -155 -246 -87 -83 44 -175 62 -323 62 -397 0
-962 -178 -1596 -504 -356 -184 -601 -336 -895 -556 -474 -355 -718 -483 -948
-497 -116 -6 -205 11 -295 60 -280 148 -425 543 -479 1297 -19 266 -16 1197 5
1544 24 392 27 376 -44 211 -248 -580 -548 -1056 -836 -1325 -584 -546 -1151
-556 -1658 -29 -426 442 -686 1075 -815 1977 -74 524 -93 1019 -69 1772 6 184
9 358 7 385 l-3 50 -75 -108 c-203 -292 -449 -716 -845 -1457 -602 -1126 -873
-1534 -1091 -1643 -81 -41 -178 -62 -244 -52 -198 29 -319 215 -400 614 -109
541 -127 1646 -45 2816 36 507 79 926 130 1260 174 1145 351 2017 652 3205 83
327 95 389 100 486 9 171 -22 241 -129 293 -127 63 -305 64 -636 6 -1109 -195
-2634 -1086 -3727 -2180 -534 -535 -881 -1029 -1023 -1460 -48 -146 -65 -240
-65 -365 0 -176 50 -312 161 -431 80 -86 157 -142 287 -206 259 -129 478 -194
1220 -363 650 -147 917 -220 1160 -317 319 -127 499 -237 676 -413 162 -161
253 -317 296 -513 25 -109 22 -334 -5 -463 -78 -366 -283 -705 -647 -1070
-281 -281 -583 -480 -850 -560 -115 -34 -304 -39 -399 -10 -196 59 -298 162
-312 317 -8 83 12 161 70 276 60 119 123 205 253 348 325 356 1011 878 1432
1090 72 36 91 50 87 63 -3 9 -10 37 -16 62 -37 145 -201 342 -393 472 -79 54
-267 146 -387 191 -210 78 -541 162 -1054 267 -674 137 -984 229 -1291 380
-478 237 -695 540 -695 971 0 332 141 684 450 1119 436 615 1253 1378 2142
2001 551 386 1283 745 1938 950 156 49 454 123 580 144 201 34 456 44 625 25z"/>
<path d="M6950 10078 c-474 -321 -1065 -862 -1257 -1151 -72 -109 -105 -219
-69 -233 24 -9 135 24 230 70 453 215 954 733 1142 1180 46 110 77 206 66 206
-4 -1 -54 -33 -112 -72z"/>
</g>
</svg>
